<svg class="icon" viewBox="0 0 1024 1024" xmlns="http://www.w3.org/2000/svg"><path d="M110.933 110.933H998.4V998.4H110.933z" fill="#22BB7A" opacity=".2"/><path d="M910.629 910.629H23.162V23.162h887.467v887.467zm-789.943-97.524h692.419v-692.42h-692.42v692.42z" fill="#2FBF80"/><path d="M491.276 783.848C384 783.848 296.23 696.076 296.23 588.8S384 393.752 491.276 393.752 686.324 481.524 686.324 588.8s-87.772 195.048-195.048 195.048zm0-292.572c-53.638 0-97.524 43.886-97.524 97.524s43.886 97.524 97.524 97.524S588.8 642.438 588.8 588.8s-43.886-97.524-97.524-97.524z" fill="#FFF"/><path d="M291.352 135.314h97.524v487.62h-97.524z" fill="#FFF"/></svg>