<svg class="icon" viewBox="0 0 1024 1024" xmlns="http://www.w3.org/2000/svg" width="36" height="36"><path d="M796.42 670.12l-43.21-75.58a17.36 17.36 0 0 1-2.29-8.54V426.67c0-123.1-93.57-224.7-213.32-237.52v-39.82a25.6 25.6 0 1 0-51.2 0v39.82C366.65 202 273.06 303.57 273.06 426.67V586a17 17 0 0 1-2.25 8.46l-43.23 75.66a68.25 68.25 0 0 0 59.27 102.13h95.47c12 60.7 65.51 106.67 129.68 106.67s117.7-46 129.66-106.67h95.46a68.26 68.26 0 0 0 59.3-102.13zM512 827.75c-35.72 0-65.76-23.37-76.53-55.5h153.08c-10.78 32.13-40.83 55.5-76.55 55.5zm233.71-109a17.57 17.57 0 0 1-8.59 2.29H286.85a17.07 17.07 0 0 1-14.85-25.5l43.23-75.66a68.46 68.46 0 0 0 9-33.88V426.67c0-103.52 84.21-187.73 187.73-187.73s187.75 84.21 187.75 187.73V586a68.58 68.58 0 0 0 9 33.88L752 695.5a17.13 17.13 0 0 1-6.29 23.29z" fill="#9697A3"/><path d="M64 512a448 448 0 1 0 896 0 448 448 0 1 0-896 0z" fill="#E5F6F2"/><path d="M213.32999999999998 512a298.67 298.67 0 1 0 597.34 0 298.67 298.67 0 1 0-597.34 0z" fill="#B7E6DB"/><path d="M362.66999999999996 512a149.33 149.33 0 1 0 298.66 0 149.33 149.33 0 1 0-298.66 0z" fill="#00AA84"/></svg>