<svg xmlns="http://www.w3.org/2000/svg" class="icon" viewBox="0 0 1024 1024"><path fill="currentColor" d="M650.667 85.333a160 160 0 0 1 94.208 289.323 165.333 165.333 0 1 1-193.067 268.373L544 637.312v136.021A165.333 165.333 0 1 1 280.875 640a165.12 165.12 0 0 1-67.542-133.333c0-53.931 25.814-101.846 65.792-132.011a160 160 0 0 1 85.76-289.11l8.406-.213h277.333zM480 672H378.667a101.333 101.333 0 1 0 101.12 108.288l.213-6.955V672zm0-266.667H378.667a101.333 101.333 0 0 0-6.955 202.454l6.955.213H480V405.333zm165.333 0a101.333 101.333 0 1 0 0 202.667 101.333 101.333 0 0 0 0-202.667zM480 149.333H373.333a96 96 0 0 0 0 192H480v-192zm170.667 0H544v192h106.667a96 96 0 0 0 0-192z"/></svg>