<svg class="icon" viewBox="0 0 1024 1024" xmlns="http://www.w3.org/2000/svg" width="36" height="36"><path d="M511.616 794.539l-276.95 138.325a43.52 43.52 0 0 1-58.709-17.067 46.507 46.507 0 0 1-5.29-21.205V584.917c0 30.72 17.322 49.664 62.848 70.87l278.101 138.752z" fill="#2A80EB" opacity=".4"/><path d="M642.987 85.333c115.498 0 209.237 45.483 210.346 161.835v647.424a44.854 44.854 0 0 1-5.248 20.821 43.008 43.008 0 0 1-59.818 17.451L511.616 794.539 233.515 655.787c-45.526-21.206-62.848-40.192-62.848-70.827V247.168c0-116.352 93.696-161.835 208.853-161.835zm28.97 257.75H350.933a33.621 33.621 0 0 0-33.493 33.706c0 18.646 14.976 33.75 33.493 33.75h321.024a33.621 33.621 0 0 0 33.494-33.707 33.621 33.621 0 0 0-33.494-33.75z" fill="#2A80EB"/></svg>